<?xml version="1.0" encoding="utf-8"?>
<!-- Generator: Adobe Illustrator 19.0.0, SVG Export Plug-In . SVG Version: 6.00 Build 0)  -->
<svg version="1.1" id="Capa_1" xmlns="http://www.w3.org/2000/svg"  x="0px" y="0px"
	 viewBox="0 0 5 2.5" style="enable-background:new 0 0 5 2.5;" xml:space="preserve">
<style type="text/css">
	.st0{opacity:0.8;fill:#010001;}
</style>
<path id="acc3_1_" class="st0" d="M4.7,0C4.5,0,4.4,0.1,4.4,0.3c0,0.1,0,0.1,0.1,0.1c0,0,0,0-0.1,0c-0.2,0-0.3,0.1-0.3,0.3
	c0,0,0,0,0,0.1H4c-0.2,0-0.3,0.1-0.3,0.3l0,0H3.6c-0.2,0-0.3,0.1-0.3,0.3l0,0H3.2C3.1,1.4,3,1.5,3,1.5C2.9,1.4,2.7,1.3,2.5,1.3
	S2.1,1.4,2,1.5c0-0.1-0.1-0.1-0.2-0.1s-0.1,0-0.1,0l0,0c0-0.1-0.1-0.3-0.3-0.3c-0.1,0-0.1,0-0.1,0l0,0C1.3,1,1.2,0.8,1,0.8H0.9
	c0,0,0,0,0-0.1S0.8,0.4,0.6,0.4c0,0,0,0-0.1,0l0.1-0.1C0.6,0.2,0.5,0,0.3,0C0.1,0,0,0.1,0,0.3c0,0.1,0.1,0.3,0.3,0.3c0,0,0,0,0.1,0
	L0.3,0.7C0.3,0.8,0.4,1,0.6,1h0.1c0,0,0,0,0,0.1S0.8,1.4,1,1.4c0.1,0,0.1,0,0.1,0l0,0c0,0.1,0.1,0.3,0.3,0.3c0.1,0,0.1,0,0.1,0l0,0
	C1.5,1.8,1.6,2,1.8,2h0.1c0,0.3,0.3,0.5,0.6,0.5c0.3,0,0.6-0.2,0.6-0.5h0.1c0.2,0,0.3-0.1,0.3-0.3l0,0h0.1c0.2,0,0.3-0.1,0.3-0.3
	l0,0H4c0.2,0,0.3-0.1,0.3-0.3c0,0,0,0,0-0.1h0.1c0.2,0,0.3-0.1,0.3-0.3c0-0.1,0-0.1-0.1-0.1c0,0,0,0,0.1,0C4.9,0.6,5,0.5,5,0.3
	C5,0.2,4.9,0,4.7,0z"/>
</svg>
