<?xml version="1.0" encoding="utf-8"?>
<!-- Generator: Adobe Illustrator 19.0.0, SVG Export Plug-In . SVG Version: 6.00 Build 0)  -->
<svg version="1.1" id="Capa_1" xmlns="http://www.w3.org/2000/svg"  x="0px" y="0px"
	 viewBox="0 0 16.4 25.1" style="enable-background:new 0 0 16.4 25.1;" xml:space="preserve">
<style type="text/css">
	.st0{opacity:0.8;fill:#010001;}
</style>
<path id="XMLID_2_" class="st0" d="M14.4,12c0,0.1,1.9-0.6,2-1.9c0.1-1.4-1.2-1.7-1.7-0.8C15,5.6,14.9,0,8.2,0S1.4,5.6,1.7,9.3
	C1.2,8.4-0.1,8.7,0,10.1c0.1,1.3,2,2,2,1.9c0.5,2.4,2.5,4,4.5,4.5c0,0,0,0.1,0,0.2c0,0,0,0,0,0.1c0,0.1,0,0.2,0,0.2
	c-0.2,0.8-0.4,1.3-0.8,1.3c0,0-0.2,0-0.5,0.1c-1.1,0.4-3.4,1.8-3.4,6.6c0,0,0.1,0.1,0.2,0.1h6.3h6.4c0-0.1,0.1-0.1,0.1-0.1
	c0-4.4-1.9-5.9-3.1-6.6c-0.5-0.2-0.8-0.2-0.8-0.2c-0.4,0-0.6-0.5-0.8-1.3C10,16.8,10,16.7,10,16.6c0,0,0,0,0,0c0,0,0-0.1,0-0.1
	C12,15.9,13.9,14.3,14.4,12z"/>
</svg>
