<?xml version="1.0" encoding="utf-8"?>
<!-- Generator: Adobe Illustrator 19.0.0, SVG Export Plug-In . SVG Version: 6.00 Build 0)  -->
<svg version="1.1" id="Capa_1" xmlns="http://www.w3.org/2000/svg"  x="0px" y="0px"
	 viewBox="0 0 9.8 6.9" style="enable-background:new 0 0 9.8 6.9;" xml:space="preserve">
<style type="text/css">
	.st0{opacity:0.8;fill:#010001;}
</style>
<path id="clothe3" class="st0" d="M8.4,3C8,2.6,7.9,1.4,7.9,0.2c0,0-0.2-0.1-0.4-0.1C7.4,0.1,7.2,0,7.2,0c0.3,2.2-1.9,3.9-2.4,3.9
	l0,0l0,0l0,0l0,0l0,0l0,0C4.2,3.9,2,2.2,2.4,0c0,0-0.2,0-0.3,0.1C1.9,0.2,1.7,0.2,1.7,0.2c0,1.2-0.1,2.4-0.5,2.8
	C0.4,3.8-0.2,4.8,0,6.9h4.9h4.9C9.7,4.8,9.1,3.8,8.4,3"/>
</svg>
