<?xml version="1.0" encoding="utf-8"?>
<!-- Generator: Adobe Illustrator 19.0.0, SVG Export Plug-In . SVG Version: 6.00 Build 0)  -->
<svg version="1.1" id="Capa_1" xmlns="http://www.w3.org/2000/svg"  x="0px" y="0px"
	 viewBox="0 0 2.7 1.1" style="enable-background:new 0 0 2.7 1.1;" xml:space="preserve">
<style type="text/css">
	.st0{opacity:0.8;}
	.st1{fill:#010001;}
</style>
<g id="face3" class="st0">
	<path id="XMLID_42_" class="st1" d="M2.7,0.4c0,0-0.6,0.7-1.3,0.7c-0.7,0-1.2-0.7-1.2-0.7s0.5-0.1,1.2-0.1C2.1,0.3,2.7,0.4,2.7,0.4
		z"/>
	<path id="XMLID_41_" class="st1" d="M1.7,0C1.5,0,1.3,0.1,1.3,0.3C1.3,0.1,1.1,0,0.9,0S0,0.3,0,0.3s0.7,0.1,0.9,0.1
		c0.2,0,0.4,0.1,0.4-0.1c0,0.2,0.1,0.1,0.3,0.1c0.2,0,0.9-0.1,0.9-0.1S1.9,0,1.7,0z"/>
</g>
</svg>
