<?xml version="1.0" encoding="utf-8"?>
<!-- Generator: Adobe Illustrator 19.0.0, SVG Export Plug-In . SVG Version: 6.00 Build 0)  -->
<svg version="1.1" id="Capa_1" xmlns="http://www.w3.org/2000/svg"  x="0px" y="0px"
	 viewBox="0 0 20.3 21.5" style="enable-background:new 0 0 20.3 21.5;" xml:space="preserve">
<style type="text/css">
	.st0{opacity:0.8;fill:#010001;}
</style>
<path id="hair48" class="st0" d="M20.3,9.7c0,0-0.9-0.2-1.5-1.5s-0.4-1.8-0.6-2.6c-0.2-0.8-0.7-1.3-1-1.6c0,0,0,0,0.1,0
	c1.6,0.9,1.6,1.6,1.6,1.6s0-1.6-1.4-2.5c-0.3-0.2-0.8-0.4-1.2-0.6c2,0.1,3.4-1,3.4-1s-2.2,0.9-4.5,0C13.9,1,12.3,0,11.5,0
	c-0.8,0-1.9,0.2-2.8,0.7C8,1.1,7.3,1.6,7,1.6c-0.3,0-0.2,0.1-1.5,0.3C4.2,2.1,3.6,2.1,2,3.7c-1.7,1.7-1.6,6-1.6,6s0-0.9,0.6-1.6
	c0.3-0.4,0.4-0.6,0.5-0.6c-0.1,0.2-0.8,1.6-0.8,3.2c0.1,3-0.7,3.4-0.7,3.4s0.4-0.1,1.1-0.7C1,13.8,1,14.1,1,14.4
	c0.5,3.1-0.6,4.2-0.6,4.2s1.1-0.6,1.7-1.9c0.2-0.5,0.4-1,0.5-1.4c0,0.3,0,0.5,0.1,0.8c0.2,1.5-1,2.7-1,2.7s1.4-0.5,1.9-1.6
	c0,0.4,0.1,0.9,0,1.3c0,0.9-0.4,1.2-0.4,1.3c0.3-0.2,0.6-0.5,0.8-1c0.5,1.7,1.6,2.7,1.6,2.7s-0.5-0.8-0.4-1.6c0-0.3,0-0.5,0.1-0.8
	C5.5,19.7,6,20.4,6.7,21c0,0-0.1-0.3-0.1-0.7c0.2,0.3,0.4,0.6,0.7,0.9C7.6,21.1,7.8,20.7,8,20c0-0.1,0-0.2,0.1-0.4l0,0l0,0
	c0-0.1,0-0.1,0-0.2C6.8,19,5.5,18.1,4.5,17c0.1-0.5,0.2-1.1,0.2-1.8c0.1-0.8,0.1-2,0.1-3.2c0-0.4,0-0.9,0-1.3
	c0.1,0.3,0.3,0.6,0.4,0.9c0.2,0.6,0.3,1.3,0.3,1.3s0.7-1.2,0.4-3c-0.1-0.4-0.1-0.7-0.2-1c0.6,1.2,1.8,1.4,1.8,1.4S6.9,9.8,6.9,8.6
	C6.9,8,7,7.5,7.3,7c0.1,0.4,0.2,0.7,0.3,1.2c0.7,1.9,2.8,2.9,2.8,2.9S8.9,9.9,9,8V7.9c0.1,0.3,0.2,0.5,0.3,0.7
	c0.6,0.9,0.8,1.1,1.6,1.5c1.2,0.6,2.5,0.7,2.5,0.7s-1.1-0.3-1.7-1.7c-0.1-0.3-0.2-0.6-0.4-0.8c0.3,0.4,0.7,0.8,1.3,1.1
	c1.8,1,2.6,3.1,3.1,5.3c0.1,0.2,0.1,0.4,0.1,0.6c-0.5,2.1-2.3,3.6-4.2,4.2c0,0.1,0,0.2,0,0.2l0,0l0,0c0,0.1,0,0.2,0.1,0.3
	c0.1,0.3,0.1,0.5,0.2,0.7c0.5-0.5,0.9-1.1,1.1-1.6c0,0.3,0.1,0.5,0.1,0.8c0,0.6-0.2,1.2-0.3,1.4c0,0,0,0,0.1,0
	c0.3-0.3,0.9-1.1,1.3-2.2c0.1,1.1,0.3,1.9,0.8,2.3c-0.1-0.1-0.3-0.4-0.3-1.3c0-0.4,0.1-0.9,0.2-1.3c0.4,1.2,1.5,1.8,1.5,1.8
	s-0.9-1.3-0.6-2.9c0-0.1,0-0.1,0-0.2s0.1-0.2,0.1-0.2c0,0.3,0.1,0.7,0.2,1.1c0.4,1.3,1.3,2.1,1.3,2.1s-0.8-1.2-0.1-4.4
	c0.1-0.2,0.1-0.6,0-1c0.5,0.7,0.8,0.8,0.8,0.8s-0.5-0.4-0.3-3c0.2,0.2,0.5,0.6,0.6,1.1c0.1,0.6-0.3,1.3-0.2,1.3
	c0.1-0.1,1.5-1.7,1-4.2c-0.1-0.5-0.3-1.1-0.5-1.6C19.4,9.7,20.3,9.7,20.3,9.7z"/>
</svg>
