<?xml version="1.0" encoding="utf-8"?>
<!-- Generator: Adobe Illustrator 19.0.0, SVG Export Plug-In . SVG Version: 6.00 Build 0)  -->
<svg version="1.1" id="Capa_1" xmlns="http://www.w3.org/2000/svg"  x="0px" y="0px"
	 viewBox="0 0 19.3 10.4" style="enable-background:new 0 0 19.3 10.4;" xml:space="preserve">
<style type="text/css">
	.st0{opacity:0.8;}
	.st1{fill:#010001;}
</style>
<g id="hat2" class="st0">
	<path class="st1" d="M5.9,10.1c0-1.6,0.3-3.3,1.3-4.7C5.8,5.5,3.7,5.6,2.1,5.7c-2.7,0.2-2,1.6-1.8,2.2c0.9,2.4,3.6,2.7,5.2,2.3
		C5.6,10.2,5.8,10.2,5.9,10.1z"/>
	<path class="st1" d="M19.2,4.5c-0.4-3.4-4-4-6-4.4c-1.9-0.5-4.4,0.4-5.6,0.8c-1,0.3-1.4,3-1.4,3.9l0,0C5.5,5.2,5.4,5.2,4.8,5.3
		C3.5,5.5,2.2,5.8,1.3,5.7c-0.9,0-1.2,0-1.3,0.9C-0.1,7.4,0,7,0,7s-0.1-0.5,0.8-0.6c0.9-0.2,3.1,1,6.1,0.7c3-0.2,6.8-2.1,7-2.2
		c1.7,0.3,2.8,1.2,3.8,2C19,8,19,9.7,19,9.7S19.4,6.1,19.2,4.5z"/>
</g>
</svg>
